<svg viewBox="0 0 40 40" fill="none" xmlns="http://www.w3.org/2000/svg"><path fill-rule="evenodd" clip-rule="evenodd" d="M13 0C5.82 0 0 5.82 0 13v.967l12.48 3.297a8.003 8.003 0 0113.916-2.07l12.579-7.262C36.999 3.27 32.382 0 27 0H13zm26.831 10.901L27.72 17.894c.183.67.28 1.377.28 2.106a7.963 7.963 0 01-1.062 3.985l12.39 7.153c.436-1.3.672-2.691.672-4.138V13c0-.714-.058-1.416-.169-2.099zm-1.787 22.96l-13.106-7.567a8.025 8.025 0 01-6.833 1.48L15.023 40H27c4.661 0 8.75-2.453 11.044-6.139zM11.94 39.957L15.333 26.5a7.99 7.99 0 01-3.33-6.258L0 17.07V27c0 6.823 5.256 12.418 11.94 12.957z" fill="#120078"/></svg>