<?xml version="1.0" standalone="no"?>
<!DOCTYPE svg PUBLIC "-//W3C//DTD SVG 20010904//EN"
 "http://www.w3.org/TR/2001/REC-SVG-20010904/DTD/svg10.dtd">
<svg version="1.0" xmlns="http://www.w3.org/2000/svg"
 width="700.000000pt" height="700.000000pt" viewBox="0 0 700.000000 700.000000"
 preserveAspectRatio="xMidYMid meet">
<metadata>
Created by potrace 1.14, written by Peter Selinger 2001-2017
</metadata>
<g transform="translate(0.000000,700.000000) scale(0.100000,-0.100000)"
fill="#000000" stroke="none">
<path d="M2095 6993 c-572 -52 -1081 -296 -1468 -703 -170 -179 -295 -361
-403 -585 -148 -307 -210 -578 -221 -950 l-5 -200 1078 -284 c594 -156 1087
-286 1097 -289 10 -3 17 1 17 10 0 31 123 257 184 338 210 280 504 467 849
542 145 31 407 31 554 0 298 -64 530 -195 744 -421 l103 -108 116 67 c63 37
554 320 1090 629 536 310 979 566 983 570 4 4 -21 66 -57 137 -299 594 -845
1030 -1487 1188 -258 63 -167 60 -1719 61 -778 1 -1433 0 -1455 -2z"/>
<path d="M5910 4480 c-580 -335 -1055 -613 -1055 -617 0 -4 9 -53 20 -108 29
-144 27 -391 -3 -532 -26 -120 -71 -252 -119 -347 -28 -56 -32 -71 -21 -81 20
-19 2133 -1235 2145 -1235 12 0 12 0 53 160 67 264 64 183 68 1700 3 1314 -1
1583 -26 1650 -6 17 -124 -48 -1062 -590z"/>
<path d="M3 3028 c3 -1080 2 -1049 67 -1309 177 -705 686 -1285 1365 -1558
170 -68 415 -129 587 -146 l66 -7 10 33 c5 19 138 549 297 1177 l288 1144 -34
26 c-64 49 -211 197 -265 268 -71 93 -156 246 -195 354 -38 104 -75 269 -84
371 l-7 77 -57 16 c-123 34 -2030 536 -2036 536 -3 0 -4 -442 -2 -982z"/>
<path d="M4297 2350 c-143 -102 -328 -180 -520 -222 -129 -28 -406 -31 -527
-5 -41 8 -78 12 -81 9 -3 -4 -124 -477 -268 -1052 -144 -575 -264 -1053 -267
-1062 -5 -17 52 -18 1103 -18 1184 0 1226 1 1466 51 238 49 554 180 762 316
213 140 431 346 585 551 93 126 107 149 94 161 -5 5 -241 143 -524 306 -283
164 -589 340 -680 393 -285 164 -1065 614 -1070 617 -3 1 -36 -19 -73 -45z"/>
</g>
</svg>
